<svg width="180" height="180" viewBox="0 0 180 180" fill="none" xmlns="http://www.w3.org/2000/svg">
  <rect width="180" height="180" fill="white"/>
  <circle cx="120" cy="55" r="24" fill="#D5D4D7"/>
  <circle cx="60" cy="55" r="24" fill="#D5D4D7"/>
  <circle cx="120" cy="55" r="9" fill="#36190F"/>
  <circle cx="60" cy="55" r="9" fill="#36190F"/>
  <rect x="47" y="60" width="86" height="60" rx="30" fill="#CFCED1"/>
  <path d="M47 90C47 73.4315 60.4315 60 77 60H123C139.569 60 153 73.4315 153 90V152H47V90Z" fill="#DAD9DC"/>
  <path d="M90 128C104.359 128 116 117.359 116 103C116 102.448 115.552 102 115 102H65C64.4477 102 64 102.448 64 103C64 117.359 75.6406 128 90 128Z" fill="#36190F"/>
</svg>
